<?xml version="1.0" standalone="no"?><!-- Generator: Gravit.io --><svg xmlns="http://www.w3.org/2000/svg" xmlns:xlink="http://www.w3.org/1999/xlink" style="isolation:isolate" viewBox="0 0 75 100" width="75" height="100"><defs><clipPath id="_clipPath_TqHyiPRiiPAoXQLBWsjQFqk0fOfhPL7i"><rect width="75" height="100"/></clipPath></defs><g clip-path="url(#_clipPath_TqHyiPRiiPAoXQLBWsjQFqk0fOfhPL7i)"><rect x="15" y="20" width="45" height="10" transform="matrix(1,0,0,1,0,0)" fill="rgb(0,0,0)"/><rect x="15" y="40" width="25" height="10" transform="matrix(1,0,0,1,0,0)" fill="rgb(0,0,0)"/><rect x="15" y="60" width="35" height="10" transform="matrix(1,0,0,1,0,0)" fill="rgb(0,0,0)"/><path d="M 8.946 4 L 66.054 4 C 68.784 4 71 6.216 71 8.946 L 71 91.054 C 71 93.784 68.784 96 66.054 96 L 8.946 96 C 6.216 96 4 93.784 4 91.054 L 4 8.946 C 4 6.216 6.216 4 8.946 4 Z" style="fill:none;stroke:#000000;stroke-width:9;stroke-linecap:square;stroke-miterlimit:2;"/></g></svg>